<svg width="24" height="24" viewBox="0 0 24 24" fill="none" xmlns="http://www.w3.org/2000/svg">
<path d="M23.821 11.181C22.8549 9.08571 21.4398 7.22852 19.676 5.741L22.708 2.709L21.293 1.293L18 4.583C16.1774 3.52872 14.1055 2.9821 12 3C4.5 3 1.057 9.261 0.179001 11.181C0.0611392 11.4383 0.0001297 11.718 0.0001297 12.001C0.0001297 12.284 0.0611392 12.5637 0.179001 12.821C1.14514 14.9163 2.56022 16.7735 4.324 18.261L1.293 21.293L2.707 22.707L6 19.417C7.82264 20.4713 9.89449 21.0179 12 21C19.5 21 22.943 14.739 23.821 12.819C23.9386 12.562 23.9995 12.2827 23.9995 12C23.9995 11.7173 23.9386 11.438 23.821 11.181ZM2 12.011C2.75 10.366 5.693 5 12 5C13.5696 4.99082 15.1186 5.357 16.518 6.068L14.753 7.833C13.7929 7.1956 12.6419 6.91 11.4952 7.02464C10.3486 7.13929 9.27687 7.64714 8.462 8.462C7.64714 9.27686 7.1393 10.3486 7.02465 11.4952C6.91 12.6419 7.1956 13.7929 7.833 14.753L5.754 16.832C4.15438 15.5294 2.87087 13.8811 2 12.011ZM15 12C15 12.7956 14.6839 13.5587 14.1213 14.1213C13.5587 14.6839 12.7957 15 12 15C11.5545 14.9983 11.1152 14.8957 10.715 14.7L14.7 10.715C14.8957 11.1152 14.9983 11.5545 15 12ZM9 12C9 11.2043 9.31607 10.4413 9.87868 9.87868C10.4413 9.31607 11.2044 9 12 9C12.4455 9.00172 12.8848 9.10429 13.285 9.3L9.3 13.285C9.10429 12.8848 9.00173 12.4455 9 12ZM12 19C10.4304 19.0092 8.88136 18.643 7.482 17.932L9.247 16.167C10.2071 16.8044 11.3581 17.09 12.5048 16.9754C13.6514 16.8607 14.7231 16.3529 15.538 15.538C16.3529 14.7231 16.8607 13.6514 16.9754 12.5048C17.09 11.3581 16.8044 10.2071 16.167 9.247L18.245 7.169C19.8478 8.47281 21.132 10.1251 22 12C21.236 13.657 18.292 19 12 19Z" fill="#A2A2A2"/>
</svg>
