<svg width="271" height="241" viewBox="0 0 271 241" fill="none" xmlns="http://www.w3.org/2000/svg">
<ellipse cx="159" cy="41" rx="159" ry="156" fill="#2E7758"/>
<ellipse cx="283" cy="92.5" rx="151" ry="148.5" fill="#52BF90"/>
<g clip-path="url(#clip0_1_67)">
<path fill-rule="evenodd" clip-rule="evenodd" d="M193.418 125.456C193.418 146.743 195.098 164 217.646 164C240.194 164 241.873 146.743 241.873 125.456" fill="#2E7758"/>
<path fill-rule="evenodd" clip-rule="evenodd" d="M224.353 112.174C223.527 113.603 222.79 115.061 222.139 116.54C222.116 113.493 222.285 110.424 222.745 107.313C223.531 101.983 224.732 96.6816 225.861 91.3884C226.672 87.5844 226.621 80.7518 229.699 77.7205C230.544 77.0654 230.747 78.3506 230.747 78.9084C230.757 79.0263 230.744 76.6317 229.925 77.0488C225.054 79.5644 223.476 87.4741 221.917 91.4344C219.642 97.2148 217.706 103.124 216.909 109.138C216.708 110.657 216.598 112.176 216.573 113.692C216.407 113.287 216.252 112.878 216.08 112.474C213.268 105.881 209.475 99.4472 204.743 93.514C203.578 92.0542 188.934 77.6495 187.788 79.8542C187.901 80.1744 188.138 80.4401 188.499 80.6514C188.52 80.6755 188.521 80.6621 188.508 80.6264C189.368 82.0156 191.814 84.1614 192.575 85.3788C194.492 88.4423 195.982 91.6934 197.496 94.8824C200.695 101.622 203.662 108.429 206.539 115.25C207.208 116.839 207.907 118.419 208.619 119.994C201.277 109.405 191.483 99.7907 178 94.2871C182.605 96.6298 185.624 101.037 188.734 104.412C192.485 108.483 196.435 112.444 200.193 116.51C204.625 121.307 209.841 126.358 214.104 131.666C218.233 140.336 222.246 149.015 224.723 158.128C223.708 154.98 224.644 150.628 224.47 147.324C224.332 144.693 224.025 142.084 223.604 139.48C224.124 140.655 224.573 141.83 224.776 142.924C224.591 141.09 224.377 139.268 224.147 137.455C224.737 135.758 225.316 134.175 225.707 132.87C227.712 126.179 230.099 119.602 233.349 113.193C236.357 107.264 239.808 101.41 243.567 95.7349C245.321 93.0889 247.099 90.4528 248.866 87.8122C250.022 86.0835 251.123 83.3156 252.733 81.6593C242.326 91.174 230.956 100.757 224.353 112.174Z" fill="#2E7758"/>
</g>
<defs>
<clipPath id="clip0_1_67">
<rect width="75" height="87" fill="white" transform="translate(178 77)"/>
</clipPath>
</defs>
</svg>
