<svg width="30" height="30" viewBox="0 0 30 30" fill="none" xmlns="http://www.w3.org/2000/svg">
<path d="M15.8837 0.365983L27.1337 11.616C27.9212 12.4035 27.3637 13.7497 26.25 13.7497H25V21.2497C25 22.2443 24.6049 23.1981 23.9016 23.9014C23.1984 24.6046 22.2446 24.9997 21.25 24.9997H20V16.2497C20 15.2932 19.6346 14.3728 18.9784 13.6769C18.3222 12.981 17.4249 12.5621 16.47 12.506L16.25 12.4997H13.75C12.7554 12.4997 11.8016 12.8948 11.0983 13.5981C10.3951 14.3013 9.99999 15.2552 9.99999 16.2497V24.9997H8.74999C7.75543 24.9997 6.8016 24.6046 6.09834 23.9014C5.39508 23.1981 4.99999 22.2443 4.99999 21.2497V13.7497H3.74999C2.63749 13.7497 2.07874 12.4035 2.86624 11.616L14.1162 0.365983C14.3506 0.131644 14.6685 0 15 0C15.3314 0 15.6493 0.131644 15.8837 0.365983ZM16.25 14.9997C16.5815 14.9997 16.8995 15.1314 17.1339 15.3658C17.3683 15.6003 17.5 15.9182 17.5 16.2497V24.9997H12.5V16.2497C12.5 15.9436 12.6124 15.6481 12.8159 15.4193C13.0193 15.1905 13.2997 15.0443 13.6037 15.0085L13.75 14.9997H16.25Z" fill="#52BF90"/>
</svg>
