<svg width="37" height="31" viewBox="0 0 37 31" fill="none" xmlns="http://www.w3.org/2000/svg">
<path d="M29.2875 24.223L28.9947 23.9647C28.1643 23.2244 27.4373 22.3758 26.8333 21.4416C26.1732 20.1524 25.7779 18.7441 25.6708 17.2997V13.0458C25.6765 10.7773 24.8536 8.5848 23.3568 6.88022C21.8599 5.17565 19.7921 4.07635 17.5419 3.78886V2.67803C17.5419 2.37314 17.4208 2.08074 17.2052 1.86515C16.9896 1.64956 16.6972 1.52844 16.3923 1.52844C16.0874 1.52844 15.795 1.64956 15.5794 1.86515C15.3638 2.08074 15.2427 2.37314 15.2427 2.67803V3.80608C13.0127 4.1143 10.9699 5.22025 9.49269 6.91909C8.0155 8.61793 7.20403 10.7946 7.20856 13.0458V17.2997C7.1014 18.7441 6.70614 20.1524 6.04607 21.4416C5.45266 22.3737 4.73734 23.2222 3.91912 23.9647L3.62634 24.223V26.6514H29.2875V24.223Z" fill="black"/>
<path d="M14.1923 27.5555C14.2678 28.1014 14.5382 28.6015 14.9537 28.9634C15.3692 29.3254 15.9016 29.5248 16.4527 29.5248C17.0037 29.5248 17.5361 29.3254 17.9516 28.9634C18.3671 28.6015 18.6376 28.1014 18.7131 27.5555H14.1923Z" fill="black"/>
</svg>
