<svg width="34" height="31" viewBox="0 0 34 31" fill="none" xmlns="http://www.w3.org/2000/svg">
<path d="M33.6392 27.5656L33.6484 27.5604L30.7344 22.5136H31.8812V22.5084C32.1204 22.5084 32.3144 22.3148 32.3144 22.0756C32.3144 22.0016 32.2908 21.9352 32.2584 21.8744L32.266 21.87L29.5712 17.2024H30.2268V17.1988C30.3087 17.1988 30.3873 17.1663 30.4453 17.1084C30.5033 17.0505 30.5359 16.9719 30.536 16.89C30.5348 16.8396 30.5211 16.7902 30.496 16.7464L30.5012 16.7432L26.5804 9.9516L26.5764 9.954C26.5337 9.86421 26.4665 9.78829 26.3826 9.73494C26.2987 9.68159 26.2014 9.65298 26.102 9.6524C25.8924 9.6524 25.7148 9.7768 25.628 9.9532L25.626 9.952L21.7052 16.7432L21.706 16.7436C21.6796 16.788 21.6652 16.8384 21.664 16.89C21.664 17.0604 21.8024 17.1988 21.9732 17.1988V17.2024H22.6376L19.9428 21.87L19.944 21.8704C19.9072 21.9327 19.887 22.0033 19.8852 22.0756C19.8852 22.3148 20.0792 22.5084 20.3184 22.5084V22.5136H21.476L20.636 23.9688L17.2764 18.1496H18.8948V18.1424C19.2324 18.1424 19.506 17.8684 19.506 17.5312C19.506 17.4272 19.4776 17.3304 19.4316 17.2444L19.4376 17.2408L15.6348 10.654H16.56V10.6492C16.6174 10.6493 16.6742 10.638 16.7272 10.616C16.7802 10.5941 16.8283 10.5619 16.8688 10.5214C16.9094 10.4808 16.9415 10.4326 16.9634 10.3796C16.9853 10.3266 16.9965 10.2698 16.9964 10.2124C16.9964 10.138 16.9728 10.0712 16.94 10.01L16.9476 10.0056L11.414 0.4228L11.412 0.424C11.3509 0.297241 11.2554 0.190243 11.1363 0.115257C11.0173 0.0402706 10.8795 0.000327189 10.7388 0C10.4356 0 10.1756 0.1808 10.0572 0.44L4.5344 10.0056L4.5356 10.0064C4.49848 10.069 4.4781 10.1401 4.4764 10.2128C4.47629 10.2701 4.48749 10.3269 4.50936 10.3799C4.53122 10.4329 4.56332 10.481 4.60382 10.5216C4.64432 10.5622 4.69241 10.5944 4.74536 10.6163C4.79832 10.6383 4.85508 10.6496 4.9124 10.6496V10.6544H5.8504L2.0924 17.1632C2.01099 17.2687 1.96657 17.398 1.966 17.5312C1.966 17.8688 2.24 18.1424 2.5772 18.1424V18.1496H4.2108L0.1548 25.1756C0.0588 25.3012 0 25.4564 0 25.6268C0 26.0396 0.3352 26.3748 0.7484 26.3748V26.3832H8.66V29.7552C8.66 30.0812 8.9244 30.346 9.2504 30.346H12.2036C12.5296 30.346 12.7944 30.0816 12.7944 29.7552V26.3832H19.2424L18.5628 27.5604L18.564 27.5612C18.5224 27.6368 18.492 27.7196 18.492 27.8124C18.492 28.1052 18.7292 28.3424 19.022 28.3424V28.3484H24.6284V29.9248C24.6284 30.156 24.816 30.3432 25.0468 30.3432H27.1396C27.3708 30.3432 27.558 30.156 27.558 29.9248V28.3484H33.178V28.3424C33.4708 28.3424 33.7084 28.1052 33.7084 27.8124C33.7064 27.7256 33.6826 27.6408 33.6392 27.5656Z" fill="black"/>
</svg>
