<svg width="47" height="40" viewBox="0 0 47 40" fill="none" xmlns="http://www.w3.org/2000/svg">
<path d="M32 12L25.6 5V8.5C22.4 8.5 16 10.6 16 19C16 17.833 17.92 15.5 25.6 15.5V19L32 12Z" stroke="black" stroke-width="2" stroke-linecap="round" stroke-linejoin="round"/>
<path d="M4.864 34.112C4.11733 34.112 3.44533 33.984 2.848 33.728C2.25067 33.4613 1.78133 33.088 1.44 32.608C1.09867 32.128 0.928 31.568 0.928 30.928H2.88C2.92267 31.408 3.10933 31.8027 3.44 32.112C3.78133 32.4213 4.256 32.576 4.864 32.576C5.49333 32.576 5.984 32.4267 6.336 32.128C6.688 31.8187 6.864 31.424 6.864 30.944C6.864 30.5707 6.752 30.2667 6.528 30.032C6.31467 29.7973 6.04267 29.616 5.712 29.488C5.392 29.36 4.944 29.2213 4.368 29.072C3.64267 28.88 3.05067 28.688 2.592 28.496C2.144 28.2933 1.76 27.984 1.44 27.568C1.12 27.152 0.96 26.5973 0.96 25.904C0.96 25.264 1.12 24.704 1.44 24.224C1.76 23.744 2.208 23.376 2.784 23.12C3.36 22.864 4.02667 22.736 4.784 22.736C5.86133 22.736 6.74133 23.008 7.424 23.552C8.11733 24.0853 8.50133 24.8213 8.576 25.76H6.56C6.528 25.3547 6.336 25.008 5.984 24.72C5.632 24.432 5.168 24.288 4.592 24.288C4.06933 24.288 3.64267 24.4213 3.312 24.688C2.98133 24.9547 2.816 25.3387 2.816 25.84C2.816 26.1813 2.91733 26.464 3.12 26.688C3.33333 26.9013 3.6 27.072 3.92 27.2C4.24 27.328 4.67733 27.4667 5.232 27.616C5.968 27.8187 6.56533 28.0213 7.024 28.224C7.49333 28.4267 7.888 28.7413 8.208 29.168C8.53867 29.584 8.704 30.144 8.704 30.848C8.704 31.4133 8.54933 31.9467 8.24 32.448C7.94133 32.9493 7.49867 33.3547 6.912 33.664C6.336 33.9627 5.65333 34.112 4.864 34.112ZM15.4163 25.04C16.0883 25.04 16.6856 25.184 17.2083 25.472C17.7416 25.76 18.1576 26.1867 18.4563 26.752C18.7656 27.3173 18.9203 28 18.9203 28.8V34H17.1123V29.072C17.1123 28.2827 16.9149 27.68 16.5203 27.264C16.1256 26.8373 15.5869 26.624 14.9043 26.624C14.2216 26.624 13.6776 26.8373 13.2723 27.264C12.8776 27.68 12.6803 28.2827 12.6803 29.072V34H10.8563V22.16H12.6803V26.208C12.9896 25.8347 13.3789 25.5467 13.8483 25.344C14.3283 25.1413 14.8509 25.04 15.4163 25.04ZM20.6389 29.552C20.6389 28.6667 20.8202 27.8827 21.1829 27.2C21.5562 26.5173 22.0575 25.9893 22.6869 25.616C23.3269 25.232 24.0309 25.04 24.7989 25.04C25.4922 25.04 26.0949 25.1787 26.6069 25.456C27.1295 25.7227 27.5455 26.0587 27.8549 26.464V25.184H29.6949V34H27.8549V32.688C27.5455 33.104 27.1242 33.4507 26.5909 33.728C26.0575 34.0053 25.4495 34.144 24.7669 34.144C24.0095 34.144 23.3162 33.952 22.6869 33.568C22.0575 33.1733 21.5562 32.6293 21.1829 31.936C20.8202 31.232 20.6389 30.4373 20.6389 29.552ZM27.8549 29.584C27.8549 28.976 27.7269 28.448 27.4709 28C27.2255 27.552 26.9002 27.2107 26.4949 26.976C26.0895 26.7413 25.6522 26.624 25.1829 26.624C24.7135 26.624 24.2762 26.7413 23.8709 26.976C23.4655 27.2 23.1349 27.536 22.8789 27.984C22.6335 28.4213 22.5109 28.944 22.5109 29.552C22.5109 30.16 22.6335 30.6933 22.8789 31.152C23.1349 31.6107 23.4655 31.9627 23.8709 32.208C24.2869 32.4427 24.7242 32.56 25.1829 32.56C25.6522 32.56 26.0895 32.4427 26.4949 32.208C26.9002 31.9733 27.2255 31.632 27.4709 31.184C27.7269 30.7253 27.8549 30.192 27.8549 29.584ZM33.9146 26.464C34.1813 26.016 34.5333 25.6693 34.9706 25.424C35.4186 25.168 35.9466 25.04 36.5546 25.04V26.928H36.0906C35.376 26.928 34.832 27.1093 34.4586 27.472C34.096 27.8347 33.9146 28.464 33.9146 29.36V34H32.0906V25.184H33.9146V26.464ZM46.3113 29.376C46.3113 29.7067 46.2899 30.0053 46.2473 30.272H39.5113C39.5646 30.976 39.8259 31.5413 40.2953 31.968C40.7646 32.3947 41.3406 32.608 42.0233 32.608C43.0046 32.608 43.6979 32.1973 44.1033 31.376H46.0712C45.8046 32.1867 45.3193 32.8533 44.6153 33.376C43.9219 33.888 43.0579 34.144 42.0233 34.144C41.1806 34.144 40.4233 33.9573 39.7513 33.584C39.0899 33.2 38.5673 32.6667 38.1833 31.984C37.8099 31.2907 37.6233 30.4907 37.6233 29.584C37.6233 28.6773 37.8046 27.8827 38.1673 27.2C38.5406 26.5067 39.0579 25.9733 39.7193 25.6C40.3913 25.2267 41.1593 25.04 42.0233 25.04C42.8553 25.04 43.5966 25.2213 44.2473 25.584C44.8979 25.9467 45.4046 26.4587 45.7673 27.12C46.1299 27.7707 46.3113 28.5227 46.3113 29.376ZM44.4073 28.8C44.3966 28.128 44.1566 27.5893 43.6873 27.184C43.2179 26.7787 42.6366 26.576 41.9433 26.576C41.3139 26.576 40.7753 26.7787 40.3273 27.184C39.8793 27.5787 39.6126 28.1173 39.5273 28.8H44.4073Z" fill="black"/>
</svg>
