<svg width="40" height="40" viewBox="0 0 40 40" fill="none" xmlns="http://www.w3.org/2000/svg">
<path d="M20 36.6667C10.795 36.6667 3.33331 29.205 3.33331 20C3.33331 10.795 10.795 3.33334 20 3.33334C29.205 3.33334 36.6666 10.795 36.6666 20C36.6666 29.205 29.205 36.6667 20 36.6667ZM20 33.3333C23.5362 33.3333 26.9276 31.9286 29.4281 29.4281C31.9286 26.9276 33.3333 23.5362 33.3333 20C33.3333 16.4638 31.9286 13.0724 29.4281 10.5719C26.9276 8.07143 23.5362 6.66668 20 6.66668C16.4638 6.66668 13.0724 8.07143 10.5719 10.5719C8.0714 13.0724 6.66665 16.4638 6.66665 20C6.66665 23.5362 8.0714 26.9276 10.5719 29.4281C13.0724 31.9286 16.4638 33.3333 20 33.3333ZM20 31.6667C18.4679 31.6667 16.9508 31.3649 15.5353 30.7786C14.1199 30.1923 12.8338 29.3329 11.7504 28.2496C10.667 27.1662 9.80769 25.8801 9.22138 24.4647C8.63508 23.0492 8.33331 21.5321 8.33331 20C8.33331 18.4679 8.63508 16.9508 9.22138 15.5354C9.80769 14.1199 10.667 12.8338 11.7504 11.7504C12.8338 10.6671 14.1199 9.80772 15.5353 9.22142C16.9508 8.63511 18.4679 8.33334 20 8.33334C23.0942 8.33334 26.0616 9.56251 28.2496 11.7504C30.4375 13.9384 31.6666 16.9058 31.6666 20C31.6666 23.0942 30.4375 26.0617 28.2496 28.2496C26.0616 30.4375 23.0942 31.6667 20 31.6667ZM20 28.3333C22.2101 28.3333 24.3297 27.4554 25.8925 25.8926C27.4553 24.3298 28.3333 22.2101 28.3333 20C28.3333 17.7899 27.4553 15.6703 25.8925 14.1075C24.3297 12.5447 22.2101 11.6667 20 11.6667C17.7898 11.6667 15.6702 12.5447 14.1074 14.1075C12.5446 15.6703 11.6666 17.7899 11.6666 20C11.6666 22.2101 12.5446 24.3298 14.1074 25.8926C15.6702 27.4554 17.7898 28.3333 20 28.3333ZM20 26.6667C18.2319 26.6667 16.5362 25.9643 15.2859 24.7141C14.0357 23.4638 13.3333 21.7681 13.3333 20C13.3333 18.2319 14.0357 16.5362 15.2859 15.286C16.5362 14.0357 18.2319 13.3333 20 13.3333C21.7681 13.3333 23.4638 14.0357 24.714 15.286C25.9643 16.5362 26.6666 18.2319 26.6666 20C26.6666 21.7681 25.9643 23.4638 24.714 24.7141C23.4638 25.9643 21.7681 26.6667 20 26.6667ZM20 23.3333C20.884 23.3333 21.7319 22.9822 22.357 22.357C22.9821 21.7319 23.3333 20.8841 23.3333 20C23.3333 19.116 22.9821 18.2681 22.357 17.643C21.7319 17.0179 20.884 16.6667 20 16.6667C19.1159 16.6667 18.2681 17.0179 17.643 17.643C17.0178 18.2681 16.6666 19.116 16.6666 20C16.6666 20.8841 17.0178 21.7319 17.643 22.357C18.2681 22.9822 19.1159 23.3333 20 23.3333ZM20 21.6667C19.558 21.6667 19.134 21.4911 18.8215 21.1785C18.5089 20.866 18.3333 20.442 18.3333 20C18.3333 19.558 18.5089 19.1341 18.8215 18.8215C19.134 18.5089 19.558 18.3333 20 18.3333C20.442 18.3333 20.8659 18.5089 21.1785 18.8215C21.4911 19.1341 21.6666 19.558 21.6666 20C21.6666 20.442 21.4911 20.866 21.1785 21.1785C20.8659 21.4911 20.442 21.6667 20 21.6667Z" fill="black"/>
</svg>
