<svg width="40" height="35" viewBox="0 0 40 35" fill="none" xmlns="http://www.w3.org/2000/svg">
<path fill-rule="evenodd" clip-rule="evenodd" d="M35.0167 16.9517L35.0217 22.99C34.9783 23.565 34.9233 24.14 34.8567 24.7133C34.7971 25.1857 34.5802 25.6243 34.2409 25.9584C33.9017 26.2924 33.4599 26.5026 32.9867 26.555C29.92 26.8983 26.7467 26.8983 23.68 26.555C23.2068 26.5026 22.765 26.2924 22.4257 25.9584C22.0865 25.6243 21.8696 25.1857 21.81 24.7133C21.4437 21.5818 21.4437 18.4182 21.81 15.2867C21.8696 14.8143 22.0865 14.3758 22.4257 14.0417C22.765 13.7076 23.2068 13.4974 23.68 13.445C26.7728 13.1022 29.8939 13.1022 32.9867 13.445C33.965 13.5533 34.745 14.3283 34.8567 15.2867C34.9217 15.84 34.975 16.3967 35.0167 16.9533M28.3333 17.5C27.6703 17.5 27.0344 17.7634 26.5656 18.2322C26.0967 18.7011 25.8333 19.337 25.8333 20C25.8333 20.6631 26.0967 21.2989 26.5656 21.7678C27.0344 22.2366 27.6703 22.5 28.3333 22.5C28.9964 22.5 29.6323 22.2366 30.1011 21.7678C30.57 21.2989 30.8333 20.6631 30.8333 20C30.8333 19.337 30.57 18.7011 30.1011 18.2322C29.6323 17.7634 28.9964 17.5 28.3333 17.5Z" fill="black"/>
<path d="M34.0066 10.0667C34.265 10.515 33.7783 11.0167 33.2633 10.96C29.9867 10.5968 26.6799 10.5968 23.4033 10.96C22.3683 11.0749 21.4025 11.5362 20.6625 12.2689C19.9225 13.0016 19.4518 13.9629 19.3266 14.9967C18.9379 18.3209 18.9379 21.6791 19.3266 25.0033C19.4518 26.0372 19.9225 26.9984 20.6625 27.7311C21.4025 28.4639 22.3683 28.9251 23.4033 29.04C26.6799 29.4033 29.9867 29.4033 33.2633 29.04C33.7816 28.9817 34.2733 29.4883 34.0116 29.94C33.3572 31.0686 32.4455 32.0267 31.3507 32.7362C30.2559 33.4458 29.0091 33.8868 27.7116 34.0233L26.625 34.1367C21.1069 34.7168 15.5412 34.6782 10.0316 34.0217L9.31164 33.9367C7.86744 33.7648 6.52148 33.1173 5.48586 32.0962C4.45024 31.075 3.78383 29.7383 3.59164 28.2967C2.85691 22.79 2.85691 17.2101 3.59164 11.7033C3.78383 10.2617 4.45024 8.92501 5.48586 7.90387C6.52148 6.88273 7.86744 6.23521 9.31164 6.06335L10.0316 5.97835C15.5412 5.32153 21.1069 5.28296 26.625 5.86335L27.7116 5.97835C29.0091 6.11475 30.2558 6.55629 31.3499 7.26685C32.444 7.97742 33.3544 8.93685 34.0066 10.0667Z" fill="black"/>
</svg>
